<?xml version="1.0" standalone="no"?>
<!DOCTYPE svg PUBLIC "-//W3C//DTD SVG 20010904//EN"
 "http://www.w3.org/TR/2001/REC-SVG-20010904/DTD/svg10.dtd">
<svg version="1.0" xmlns="http://www.w3.org/2000/svg"
 width="1024.000000pt" height="1024.000000pt" viewBox="0 0 1024.000000 1024.000000"
 preserveAspectRatio="xMidYMid meet">

<g transform="translate(0.000000,1024.000000) scale(0.100000,-0.100000)"
fill="#000000" stroke="none">
<path d="M7180 8435 c-140 -41 -218 -67 -401 -134 -112 -41 -366 -170 -497
-252 -141 -88 -354 -255 -487 -382 l-110 -105 -35 18 c-48 24 -255 75 -368 90
-125 17 -419 7 -577 -19 -123 -21 -250 -55 -273 -74 -9 -7 -19 -5 -35 10 -12
10 -62 55 -112 99 -216 193 -366 304 -576 427 -227 133 -551 266 -811 332
-126 33 -172 33 -193 1 -30 -46 -77 -182 -121 -353 -35 -138 -47 -208 -60
-355 -21 -230 -24 -652 -6 -763 21 -130 69 -300 118 -423 l46 -114 -34 -28
-33 -28 -3 -199 -3 -200 26 -31 c15 -18 49 -40 82 -52 31 -12 60 -23 64 -26 7
-4 -40 -124 -81 -205 -90 -177 -273 -350 -468 -445 -51 -25 -96 -52 -99 -61
-10 -25 19 -71 138 -223 167 -213 588 -629 837 -827 177 -140 744 -616 826
-692 364 -338 582 -563 766 -791 24 -30 91 -109 148 -175 190 -218 199 -222
294 -123 33 35 104 115 157 178 432 516 727 798 1631 1558 317 266 605 532
729 673 243 276 313 372 309 424 -3 28 -10 33 -108 72 -57 24 -127 58 -155 78
-70 48 -204 187 -252 262 -47 72 -135 269 -131 290 2 9 29 25 60 37 109 40
115 59 103 311 -7 152 -8 158 -35 189 l-28 31 20 50 c128 326 154 459 165 836
10 364 -25 614 -133 939 -57 172 -65 189 -101 208 -29 16 -27 16 -193 -33z
m-4031 -269 c205 -73 498 -222 684 -349 121 -82 294 -234 392 -343 45 -49 84
-96 86 -103 3 -9 28 -4 96 19 117 39 280 75 408 91 135 16 397 14 520 -5 81
-12 334 -72 430 -101 16 -5 30 7 73 63 50 67 153 173 217 225 268 216 559 383
875 500 110 41 328 102 336 94 3 -2 25 -74 48 -158 67 -235 94 -427 64 -445
-6 -4 -14 -2 -16 5 -3 8 -13 22 -23 32 -21 21 -41 109 -60 262 -7 54 -18 105
-24 114 -13 18 -12 18 -150 -67 -44 -27 -83 -49 -86 -50 -4 0 -28 -20 -55 -44
-28 -26 -55 -43 -66 -41 -10 2 -18 -1 -18 -6 0 -11 -25 -39 -35 -39 -3 0 -3 4
0 10 10 16 -28 -1 -49 -22 -10 -11 -24 -17 -32 -14 -8 3 -14 1 -14 -5 0 -5 -6
-9 -12 -7 -16 2 -61 -12 -68 -22 -8 -12 -108 -60 -125 -60 -8 0 -15 -3 -15 -8
0 -4 -26 -13 -57 -20 -124 -26 -197 -50 -229 -76 -19 -15 -39 -24 -46 -20 -7
5 -9 2 -5 -9 3 -8 -1 -21 -9 -27 -8 -7 -14 -19 -14 -26 0 -12 -26 -19 -52 -15
-4 0 -5 -6 -2 -14 4 -8 1 -15 -6 -15 -7 0 -10 -7 -6 -16 5 -13 2 -15 -14 -11
-11 3 -18 1 -14 -4 3 -5 -6 -9 -20 -9 -20 0 -29 -9 -45 -46 -19 -41 -24 -46
-46 -40 -52 13 -23 -20 68 -78 50 -33 115 -78 142 -101 28 -23 64 -50 80 -60
45 -28 84 -67 79 -79 -2 -7 31 -50 73 -96 102 -112 179 -214 242 -326 28 -49
51 -92 51 -95 0 -2 -107 -4 -237 -4 -304 -1 -470 -18 -668 -72 -164 -44 -283
-98 -367 -166 -101 -82 -94 -80 -173 -50 -61 23 -85 27 -185 26 -77 0 -137 -5
-180 -17 -137 -36 -127 -36 -152 -9 -32 35 -182 132 -253 164 -102 46 -239 80
-425 106 -106 14 -190 18 -387 16 -139 -1 -253 0 -253 1 0 15 27 77 44 101 12
16 29 45 40 65 35 65 133 185 232 282 54 54 95 101 91 104 -4 4 -14 1 -23 -7
-15 -12 -17 -12 -13 0 3 8 23 24 45 35 21 11 75 48 119 84 44 35 115 85 157
110 43 26 77 51 78 56 0 12 -144 165 -200 211 -140 116 -174 140 -196 141 -13
1 -32 9 -43 18 -25 23 -129 75 -149 74 -25 0 -148 54 -216 96 -33 20 -69 36
-80 37 -12 0 -30 3 -41 5 -11 3 -31 6 -45 8 -14 1 -41 8 -60 14 -19 6 -50 13
-68 14 -22 2 -56 20 -100 54 -106 80 -131 81 -132 4 0 -45 -8 -56 -47 -65 -24
-5 -33 -3 -33 6 0 18 -17 -1 -24 -26 -3 -11 -3 -2 0 20 7 56 52 238 69 279
l15 35 104 -29 c58 -15 150 -44 205 -64z m-402 -308 c-3 -7 -5 -2 -5 12 0 14
2 19 5 13 2 -7 2 -19 0 -25z m-13 -210 l-11 -103 -2 86 c0 47 2 115 6 150 l7
64 6 -47 c3 -26 1 -93 -6 -150z m4492 -295 c-8 -15 -21 -39 -28 -53 -7 -14
-18 -31 -25 -38 -15 -16 -55 -12 -61 6 -2 8 2 10 14 5 12 -4 15 -3 10 5 -4 7
-3 12 3 12 5 0 11 -3 14 -7 2 -5 2 -2 0 6 -4 16 80 118 85 103 2 -6 -3 -24
-12 -39z m-3249 -1063 c168 -12 268 -36 381 -90 193 -92 273 -232 259 -455 -9
-133 -65 -300 -126 -375 l-21 -25 0 35 c0 64 -93 289 -158 382 -67 96 -219
228 -299 258 -84 31 -217 45 -312 31 -101 -15 -162 -36 -274 -95 -48 -25 -94
-46 -102 -46 -41 0 -9 -30 125 -117 47 -30 110 -76 140 -102 77 -66 148 -116
193 -135 44 -18 174 -36 260 -36 81 0 137 -15 242 -66 88 -42 174 -104 145
-104 -18 0 -50 19 -35 21 6 0 -10 6 -35 14 -25 7 -65 21 -90 30 -25 9 -64 15
-87 13 -24 -2 -43 -1 -43 2 0 3 -16 6 -35 6 -29 1 -35 -2 -36 -20 -2 -20 -2
-20 -6 -1 -4 22 -27 23 -165 9 -55 -6 -68 -4 -68 7 0 8 -3 10 -8 4 -9 -12 -52
-15 -52 -3 0 4 -4 8 -10 8 -5 0 -10 -7 -10 -15 0 -23 -17 -18 -24 8 -6 22 -6
22 -22 2 -13 -17 -16 -18 -25 -5 -8 11 -12 12 -15 3 -4 -8 -13 -9 -28 -3 -13
5 -29 4 -37 -1 -20 -13 -29 -11 -29 6 0 10 -10 15 -28 15 -15 0 -43 5 -62 11
-67 20 -80 21 -74 4 4 -8 1 -15 -5 -15 -6 0 -11 7 -11 15 0 8 -4 15 -10 15 -5
0 -9 -3 -9 -7 3 -19 -2 -27 -9 -15 -5 7 -20 13 -33 14 -50 3 -99 -2 -99 -11 0
-5 8 -8 18 -7 9 2 2 -2 -16 -8 -28 -8 -33 -14 -29 -34 8 -40 -10 -10 -38 62
-56 152 -70 399 -29 536 37 128 166 233 319 261 137 26 329 32 522 19z m2448
0 c176 -12 250 -27 340 -69 114 -53 165 -118 199 -252 22 -90 21 -259 -3 -374
-21 -100 -49 -177 -50 -137 -1 13 -7 22 -17 22 -9 0 -12 5 -8 13 5 8 2 8 -9
-2 -15 -12 -17 -11 -18 10 0 22 -1 23 -9 4 -5 -11 -9 -15 -10 -10 0 6 -5 2
-11 -7 -13 -24 -26 -23 -34 2 -4 11 -11 17 -17 14 -7 -4 -6 -9 1 -14 7 -4 -7
-12 -31 -20 -24 -7 -47 -17 -52 -22 -6 -4 -19 -8 -30 -8 -15 0 -17 3 -8 9 8 5
0 7 -22 7 -20 -1 -36 -5 -36 -10 0 -6 -7 -1 -16 10 -15 18 -15 18 -10 0 6 -16
4 -17 -9 -6 -8 7 -15 8 -15 3 0 -6 -13 -9 -29 -7 -20 2 -31 -2 -35 -13 -5 -12
-15 -14 -40 -10 -19 3 -39 0 -45 -6 -8 -8 -11 -8 -11 0 0 6 6 13 13 16 6 2 8
8 4 13 -5 5 -18 -2 -30 -16 -11 -14 -18 -18 -14 -8 3 9 -1 22 -9 28 -12 10
-14 8 -15 -16 -1 -16 -3 -21 -6 -12 -3 13 -12 15 -39 11 -23 -4 -34 -2 -34 7
0 9 -4 9 -17 -1 -11 -10 -14 -10 -9 -1 5 8 -2 12 -24 12 -18 0 -29 -4 -25 -10
9 -14 -9 -12 -23 2 -10 10 -17 10 -33 0 -12 -8 -18 -9 -14 -3 3 6 -1 11 -9 11
-9 0 -16 -4 -16 -10 0 -5 -4 -10 -10 -10 -5 0 -7 7 -4 15 5 12 -6 15 -64 15
-39 0 -74 5 -77 10 -3 6 -18 9 -33 9 -27 -1 -27 -1 3 -8 l30 -7 -32 -5 c-18
-3 -30 -2 -27 3 10 16 -13 8 -59 -22 -26 -16 -52 -30 -57 -30 -6 0 -10 -4 -10
-9 0 -5 -8 -12 -17 -15 -40 -15 -63 -32 -69 -48 -6 -21 -24 -24 -24 -5 0 15
164 124 225 150 63 26 123 36 216 37 48 0 109 4 137 10 78 14 190 73 267 141
68 58 178 135 279 194 l49 28 -42 13 c-23 7 -72 30 -109 53 -145 87 -293 116
-451 87 -143 -26 -273 -106 -374 -231 -78 -98 -182 -318 -202 -427 -4 -21 -10
-38 -14 -38 -13 0 -61 100 -97 205 -32 95 -38 125 -42 220 -3 90 0 121 16 172
43 137 120 210 284 273 116 44 195 60 333 69 66 5 127 9 135 10 9 0 87 -4 175
-9z m-3470 -64 c51 -22 58 -61 16 -98 -42 -37 -101 -39 -136 -3 -38 37 -30 76
20 103 28 16 59 15 100 -2z m4306 -12 c36 -32 19 -85 -32 -103 -48 -17 -66
-14 -100 17 -26 23 -31 33 -25 55 13 54 111 73 157 31z m-3236 -314 c34 -32
35 -97 3 -128 -44 -40 -76 -45 -127 -20 -71 35 -81 99 -25 155 22 22 32 25 75
21 33 -4 58 -13 74 -28z m2185 13 c26 -15 50 -50 50 -74 0 -53 -76 -117 -125
-105 -27 7 -85 70 -85 92 0 27 30 73 58 88 36 20 68 20 102 -1z m-1057 -254
c67 -33 82 -61 151 -287 9 -29 27 -76 40 -105 13 -29 41 -90 62 -137 46 -102
52 -167 29 -318 -8 -56 -15 -126 -16 -155 0 -29 -4 -61 -8 -72 -8 -20 -8 -19
-15 2 -12 36 -70 79 -143 104 -58 21 -87 24 -203 24 -126 0 -140 -2 -205 -29
-38 -16 -79 -37 -91 -47 -24 -23 -42 -25 -24 -4 7 8 8 15 3 15 -5 0 -19 46
-31 103 -30 138 -30 274 -1 359 12 35 25 65 29 68 12 9 31 50 52 112 10 33 28
72 39 87 10 14 28 66 38 115 22 101 41 127 116 162 62 29 121 30 178 3z m2096
-98 c58 -97 168 -245 218 -293 59 -57 130 -102 194 -123 52 -17 54 -21 39 -45
-7 -11 -31 -16 -87 -17 -43 -1 -78 -3 -78 -3 0 0 -27 -3 -60 -6 -114 -9 -163
-8 -178 5 -9 7 -42 15 -74 18 -44 5 -63 12 -78 30 -11 12 -25 23 -30 23 -6 0
-4 -4 4 -9 11 -7 8 -13 -12 -31 -14 -12 -31 -35 -37 -51 -7 -16 -16 -29 -21
-29 -5 0 -8 -6 -7 -12 2 -7 -5 -12 -14 -10 -10 2 -18 -1 -19 -5 0 -4 -2 -18
-3 -30 -1 -12 1 -20 5 -18 4 3 10 -6 13 -20 4 -14 11 -25 17 -25 6 0 8 -4 5
-9 -3 -4 18 -9 47 -9 28 -1 86 -13 127 -27 44 -15 109 -28 158 -32 57 -4 82
-10 82 -19 0 -7 -28 -37 -62 -68 -35 -30 -92 -80 -127 -110 -74 -65 -170 -126
-215 -137 l-31 -7 38 -1 c20 -1 37 -5 37 -10 0 -18 -174 -172 -386 -343 -50
-40 -136 -111 -190 -158 -54 -47 -139 -119 -189 -159 -130 -106 -447 -393
-613 -556 -218 -212 -440 -466 -649 -741 -20 -25 -24 -27 -33 -13 -30 50 -148
201 -249 319 -161 188 -645 670 -831 827 -85 72 -198 167 -250 212 -52 44
-144 120 -204 168 -60 49 -139 113 -175 143 -36 31 -124 99 -196 152 -71 53
-141 108 -155 123 l-25 27 79 -7 c56 -5 76 -4 72 4 -4 6 -16 11 -26 11 -11 0
-65 24 -122 52 -86 45 -117 67 -194 144 -51 51 -104 100 -118 109 -14 10 -26
21 -26 26 0 5 31 9 69 9 72 0 273 33 303 50 10 6 25 10 33 10 8 0 15 5 15 10
0 6 -4 10 -10 10 -5 0 -10 7 -10 15 0 17 4 16 -75 20 -62 4 -198 29 -241 45
-13 5 -24 14 -24 20 0 6 -12 16 -27 23 -16 7 -44 21 -62 31 -22 12 -60 20
-102 21 -75 3 -112 12 -104 25 3 5 42 28 85 51 65 33 98 60 174 140 82 86 180
219 242 327 10 17 21 32 25 32 4 0 10 -30 13 -67 4 -38 9 -80 12 -94 3 -18 0
-28 -10 -32 -10 -4 -13 -1 -9 9 3 7 0 14 -6 14 -17 0 -13 -51 5 -71 8 -9 19
-43 24 -75 23 -145 37 -181 116 -300 88 -132 148 -179 285 -223 102 -33 103
-33 123 4 18 33 18 34 -8 61 -14 16 -24 29 -23 30 1 1 36 -7 77 -17 41 -11
134 -26 205 -33 72 -8 120 -14 108 -15 -28 -1 -57 -53 -49 -87 5 -18 2 -24 -9
-24 -9 0 -13 -4 -10 -10 8 -13 221 -13 310 1 88 14 254 26 257 19 2 -3 26 -20
53 -39 28 -18 100 -85 161 -147 71 -74 117 -114 131 -114 16 0 22 -8 28 -37
11 -59 40 -106 105 -171 68 -67 199 -142 248 -142 58 0 244 118 307 194 46 56
65 104 66 168 1 51 2 52 9 15 4 -20 10 -41 14 -45 10 -9 38 29 32 44 -2 6 18
30 45 54 27 23 49 46 49 51 0 13 42 59 53 59 6 0 30 16 53 36 24 19 44 32 44
28 0 -3 7 -1 15 6 17 14 20 50 4 50 -13 0 -100 62 -95 67 2 3 38 -14 78 -36
51 -28 87 -41 114 -41 21 0 66 -7 99 -15 42 -10 110 -14 225 -13 91 1 135 3
98 5 -38 2 -68 6 -68 9 0 2 7 21 15 41 8 19 15 44 15 54 0 11 6 19 13 19 8 0
7 4 -3 10 -10 7 11 10 70 10 100 0 271 28 343 56 9 3 11 -11 9 -51 -4 -51 -2
-55 18 -55 11 0 18 -4 15 -10 -3 -5 -19 -10 -35 -10 -16 0 -32 -4 -35 -10 -10
-15 10 -12 91 15 138 46 132 41 340 278 14 16 45 70 68 120 39 82 44 103 51
192 4 55 7 118 7 140 -1 22 2 65 5 95 l5 55 17 -35 c10 -19 32 -59 50 -89z
m-2759 -710 c0 -13 -22 -29 -66 -46 l-39 -16 30 26 c17 14 36 25 43 25 6 0 12
5 12 10 0 6 5 10 10 10 6 0 10 -4 10 -9z m754 -260 c27 -23 20 -57 -17 -74
-109 -52 -293 -48 -362 8 -25 19 -28 27 -19 42 19 30 89 42 240 40 102 -2 146
-6 158 -16z m173 -63 c-3 -8 -6 -5 -6 6 -1 11 2 17 5 13 3 -3 4 -12 1 -19z"/>
<path d="M5009 7293 c-11 -15 -11 -16 1 -5 19 17 71 15 100 -4 l25 -16 -24 21
c-29 26 -83 28 -102 4z"/>
<path d="M4955 7239 c-4 -6 -5 -12 -2 -15 2 -3 7 2 10 11 7 17 1 20 -8 4z"/>
<path d="M5385 7240 c-3 -6 1 -7 9 -4 18 7 21 14 7 14 -6 0 -13 -4 -16 -10z"/>
<path d="M5352 7210 c-18 -29 -15 -38 4 -12 9 13 14 25 12 27 -2 2 -9 -5 -16
-15z"/>
<path d="M4573 7208 c-6 -7 -16 -24 -23 -38 -10 -22 -9 -22 14 5 23 27 32 45
22 45 -2 0 -8 -6 -13 -12z"/>
<path d="M5541 7144 c0 -11 3 -14 6 -6 3 7 2 16 -1 19 -3 4 -6 -2 -5 -13z"/>
<path d="M5355 7103 c18 -30 62 -60 73 -48 3 3 0 5 -7 5 -8 0 -29 17 -49 38
-34 36 -34 36 -17 5z"/>
<path d="M4550 7117 c0 -15 32 -55 48 -62 11 -4 9 2 -8 22 -14 15 -28 32 -32
38 -5 5 -8 6 -8 2z"/>
<path d="M4164 6995 c-9 -13 -14 -28 -12 -33 1 -5 10 6 19 24 19 40 16 44 -7
9z"/>
<path d="M4230 5466 c0 -2 7 -9 15 -16 9 -7 15 -8 15 -2 0 5 -7 12 -15 16 -8
3 -15 4 -15 2z"/>
<path d="M4275 5441 c3 -6 24 -20 46 -30 51 -25 40 -7 -13 20 -22 11 -37 16
-33 10z"/>
<path d="M6422 5448 c5 -13 38 -20 38 -8 0 4 -7 11 -16 14 -22 9 -26 8 -22 -6z"/>
<path d="M7200 5435 c0 -2 11 -15 25 -29 28 -28 30 -27 13 9 -9 21 -38 36 -38
20z"/>
<path d="M7320 5254 c0 -8 5 -12 10 -9 6 4 8 11 5 16 -9 14 -15 11 -15 -7z"/>
<path d="M7348 5223 c6 -2 12 -11 12 -19 0 -8 5 -14 11 -14 8 0 9 -4 0 -13
-14 -17 -4 -27 26 -27 13 0 45 -11 70 -25 25 -14 47 -24 49 -22 2 2 -8 10 -24
18 -15 7 -52 35 -83 61 -31 27 -61 48 -65 47 -5 0 -3 -3 4 -6z"/>
<path d="M6375 4684 c-161 -25 -415 -81 -505 -112 -31 -11 -79 -31 -108 -46
-43 -22 -53 -31 -50 -49 4 -32 50 -33 132 -2 70 26 309 85 433 106 37 6 156
14 263 18 193 6 195 6 198 29 5 37 -47 51 -200 56 -73 3 -146 2 -163 0z"/>
<path d="M3435 4673 c-40 -11 -61 -52 -35 -68 5 -3 85 -7 177 -9 115 -2 204
-10 283 -25 132 -24 330 -73 410 -103 95 -34 108 -34 116 -2 12 48 -18 62
-316 148 -47 13 -132 32 -190 41 -104 17 -407 29 -445 18z"/>
<path d="M3670 4420 c-99 -8 -205 -25 -246 -40 -29 -11 -34 -64 -8 -74 9 -4
62 0 118 8 151 22 320 29 411 17 484 -63 455 -62 455 -16 0 33 -2 35 -52 49
-70 20 -144 32 -308 51 -141 16 -211 17 -370 5z"/>
<path d="M5970 4401 c-63 -10 -150 -26 -192 -36 -74 -16 -78 -18 -78 -45 0
-48 15 -52 146 -35 66 8 155 21 199 29 162 30 298 30 571 0 56 -6 63 -5 73 14
15 29 6 46 -32 60 -101 36 -489 43 -687 13z"/>
<path d="M3960 4191 c-91 -10 -185 -24 -209 -30 -46 -13 -95 -54 -88 -74 5
-16 86 -14 217 6 58 9 132 19 166 23 l61 6 40 -73 c139 -259 376 -548 613
-751 76 -64 279 -198 301 -198 27 0 113 86 94 94 -8 3 -15 15 -15 26 0 11 -4
20 -10 20 -6 0 -10 31 -10 73 0 40 -5 78 -11 84 -8 8 2 8 33 2 24 -4 46 -8 51
-9 4 0 7 -25 7 -55 0 -51 11 -72 23 -42 4 8 8 8 14 2 19 -23 55 -37 67 -25 8
8 6 10 -9 5 -19 -6 -19 -6 -2 8 11 9 24 14 31 11 16 -6 198 167 312 296 88
101 110 130 83 115 -8 -5 -11 -4 -6 1 5 5 14 9 20 9 17 0 120 156 184 278 31
59 61 111 68 117 12 10 265 -11 353 -30 66 -15 84 -9 80 27 -7 65 -156 94
-491 96 -217 2 -229 1 -243 -18 -22 -30 -13 -48 31 -58 22 -4 50 -10 63 -13
l23 -5 -23 -41 c-13 -22 -65 -80 -115 -128 -101 -96 -223 -166 -337 -195 -88
-22 -262 -37 -341 -30 -200 19 -409 100 -529 206 -33 28 -156 180 -156 192 0
2 20 7 45 11 86 11 107 43 43 65 -57 20 -255 21 -428 2z m1730 -515 c0 -3 -4
-8 -10 -11 -5 -3 -10 -1 -10 4 0 6 5 11 10 11 6 0 10 -2 10 -4z m-1084 -124
c-4 -3 -14 2 -24 12 -16 18 -16 18 6 6 13 -6 21 -14 18 -18z m864 -12 c-14
-11 -30 -24 -37 -30 -9 -7 -39 -15 -75 -19 -5 -1 -8 -10 -8 -21 0 -15 -6 -20
-22 -19 -53 5 -108 -2 -120 -14 -7 -8 -35 -14 -62 -14 -27 -1 -51 -5 -55 -10
-9 -14 -91 -16 -106 -3 -8 6 -30 12 -49 13 -20 1 -36 5 -36 9 0 4 42 5 93 1
138 -9 325 36 462 110 40 22 45 20 15 -3z m-685 -62 l110 -39 -75 6 c-84 7
-126 24 -161 62 -22 24 -22 25 -4 18 11 -4 70 -25 130 -47z"/>
<path d="M5229 3223 c-13 -17 -13 -17 6 -3 11 8 22 16 24 17 2 2 0 3 -6 3 -6
0 -17 -8 -24 -17z"/>
<path d="M4536 1762 c-4 -4 -97 -9 -238 -14 -49 -2 -88 -6 -88 -9 0 -3 -15 -4
-32 -2 -22 3 -29 1 -20 -5 14 -10 -68 -9 -84 1 -5 3 -7 -15 -5 -40 3 -42 2
-45 -18 -38 -12 3 -21 2 -21 -3 0 -12 36 -19 84 -18 20 1 36 -2 36 -5 0 -4 19
-6 43 -5 23 0 53 -3 67 -7 19 -6 21 -6 10 2 -11 9 -5 10 25 6 51 -6 113 -15
145 -21 90 -16 131 -19 145 -12 10 6 15 5 15 -3 0 -7 11 -10 30 -7 17 3 30 1
30 -4 0 -5 4 -7 8 -4 5 3 173 8 373 11 200 3 387 8 414 11 28 2 81 5 118 5 54
1 67 4 63 15 -3 8 -1 14 3 14 5 0 11 -6 13 -12 3 -9 9 -8 21 4 12 12 27 15 57
11 38 -5 40 -4 40 21 0 14 5 26 10 26 6 0 10 -12 10 -27 l0 -27 16 22 c13 19
13 26 3 38 -18 21 -69 47 -69 34 0 -5 -7 -10 -16 -10 -8 0 -13 4 -10 9 9 14
-24 24 -82 26 -43 1 -52 -2 -47 -15 5 -13 4 -13 -7 0 -7 9 -31 17 -53 18 -22
1 -78 7 -124 13 -77 9 -856 11 -865 1z"/>
<path d="M5835 1701 c-3 -5 -2 -12 3 -15 5 -3 9 1 9 9 0 17 -3 19 -12 6z"/>
</g>
</svg>
